<?xml version="1.0" encoding="UTF-8" standalone="no"?>
<svg
   xmlns:dc="http://purl.org/dc/elements/1.1/"
   xmlns:cc="http://creativecommons.org/ns#"
   xmlns:rdf="http://www.w3.org/1999/02/22-rdf-syntax-ns#"
   xmlns:svg="http://www.w3.org/2000/svg"
   xmlns="http://www.w3.org/2000/svg"
   xmlns:sodipodi="http://sodipodi.sourceforge.net/DTD/sodipodi-0.dtd"
   xmlns:inkscape="http://www.inkscape.org/namespaces/inkscape"
   version="1.1"
   id="mdi-face-woman"
   width="24"
   height="24"
   viewBox="0 0 24 24"
   sodipodi:docname="ginger.svg"
   inkscape:version="0.92.4 (5da689c313, 2019-01-14)">
  <metadata
     id="metadata9">
    <rdf:RDF>
      <cc:Work
         rdf:about="">
        <dc:format>image/svg+xml</dc:format>
        <dc:type
           rdf:resource="http://purl.org/dc/dcmitype/StillImage" />
        <dc:title></dc:title>
      </cc:Work>
    </rdf:RDF>
  </metadata>
  <defs
     id="defs7">
    <linearGradient
       gradientUnits="userSpaceOnUse"
       gradientTransform="rotate(-90,23.999999,24.000001)"
       x2="47"
       x1="1"
       id="linearGradient3764">
      <stop
         offset="0"
         style="stop-color:#0c8a7e"
         id="stop2" />
      <stop
         offset="1"
         style="stop-color:#0e9c8f"
         id="stop4" />
    </linearGradient>
  </defs>
  <sodipodi:namedview
     pagecolor="#ffffff"
     bordercolor="#666666"
     borderopacity="1"
     objecttolerance="10"
     gridtolerance="10"
     guidetolerance="10"
     inkscape:pageopacity="0"
     inkscape:pageshadow="2"
     inkscape:window-width="1366"
     inkscape:window-height="683"
     id="namedview5"
     showgrid="false"
     inkscape:zoom="16"
     inkscape:cx="12.079127"
     inkscape:cy="11.103674"
     inkscape:window-x="0"
     inkscape:window-y="0"
     inkscape:window-maximized="1"
     inkscape:current-layer="mdi-face-woman" />
  <g
     id="g1211">
    <g
       id="g1190">
      <g
         id="g1183">
        <g
           style="fill:#212121;fill-opacity:1"
           transform="matrix(0.50928762,0,0,0.51196808,-0.42693396,-0.50277233)"
           id="g19">
          <path
             style="fill:#212121;fill-opacity:1"
             d="M 24,1 C 36.703,1 47,11.297 47,24 47,36.703 36.703,47 24,47 11.297,47 1,36.703 1,24 1,11.297 11.297,1 24,1 Z"
             id="path17"
             inkscape:connector-curvature="0" />
        </g>
      </g>
      <g
         id="g35"
         transform="matrix(0.50928762,0,0,0.51196808,-0.42693396,-0.50277233)">
        <path
           inkscape:connector-curvature="0"
           id="path33"
           d="m 40.03,7.531 c 3.712,4.084 5.969,9.514 5.969,15.469 0,12.703 -10.297,23 -23,23 C 17.045,46 11.615,43.744 7.53,40.031 11.708,44.322 17.54,47 23.999,47 c 12.703,0 23,-10.298 23,-23 0,-6.462 -2.677,-12.291 -6.969,-16.469 z"
           style="opacity:0.1" />
      </g>
    </g>
    <g
       transform="matrix(0.79214133,0,0,0.84160843,2.0440289,1.9581636)"
       id="g1197">
      <path
         id="path968"
         d="m 12.110377,1.7088258 c -6.7534723,0 -12.15624999,3.5131579 -12.15624999,7.9046053 v 6.1480269 c 3.4e-7,1.455197 1.81417969,2.634868 4.05208329,2.634868 H 8.0582937 V 11.37001 H 2.655516 V 9.6134311 c -10e-8,-3.3954612 4.2330854,-6.1480264 9.454861,-6.1480264 5.221775,4e-7 9.45486,2.7525654 9.45486,6.1480264 v 1.7565789 0 l -1.350693,7.026316 v 0 c 0,0 4.052083,0.257829 4.052083,-2.634868 V 9.6134311 c 0,-4.3914474 -5.443298,-7.9046053 -12.15625,-7.9046053 z"
         inkscape:connector-curvature="0"
         style="fill:#fafafa;fill-opacity:1;stroke-width:1.08917427"
         sodipodi:nodetypes="sssscccssscccssss" />
      <g
         id="g913"
         transform="matrix(-1,0,0,1,24.343115,3.25)"
         style="fill:#e65100;fill-opacity:1">
        <path
           inkscape:connector-curvature="0"
           id="path2"
           d="m 12.508474,1.338983 c -5.2319819,0 -9.5496873,4.0737141 -9.9589838,9.205078 a 9.9661026,9.025423 0 0 0 9.9589838,8.828125 9.9661026,9.025423 0 0 0 9.957031,-8.857422 C 22.042216,5.3971016 17.730571,1.338983 12.508474,1.338983 Z M 9.7682401,5.1085143 C 11.57824,7.6685142 14.558396,9.338983 17.928396,9.338983 c 0.78,0 1.53,-0.089766 2.25,-0.2597656 0.21,0.7099996 0.330078,1.4697656 0.330078,2.2597656 0,4.41 -3.59,8 -8,8 -4.4099999,0 -7.9999994,-3.59 -7.9999994,-8 0,-0.29 7.813e-4,-0.579375 0.050781,-0.859375 2.3600003,-1.05 4.2289843,-2.9810937 5.2089845,-5.3710937 z m -0.259766,5.9804687 c -0.69,0 -1.25,0.56 -1.25,1.25 0,0.69 0.56,1.25 1.25,1.25 0.6899999,0 1.2499999,-0.56 1.2499999,-1.25 0,-0.69 -0.56,-1.25 -1.2499999,-1.25 z m 5.9999999,0 c -0.69,0 -1.25,0.56 -1.25,1.25 0,0.69 0.56,1.25 1.25,1.25 0.69,0 1.25,-0.56 1.25,-1.25 0,-0.69 -0.56,-1.25 -1.25,-1.25 z"
           style="fill:#e65100;fill-opacity:1" />
        <path
           sodipodi:nodetypes="cccccccc"
           inkscape:connector-curvature="0"
           id="path822"
           d="m 9.7682401,5.1085143 c 0.00533,5.1519267 4.1159859,11.4852207 9.4960189,11.6445307 0.06029,-0.04211 0.120267,-0.08446 0.179104,-0.127706 1.694418,-1.322451 2.661215,-3.074996 2.707504,-4.907999 C 21.517146,6.7227738 16.667592,-1.8051652 9.7682401,5.1085143 Z M 29.543625,7.2350255 v -0.011036 c -0.03899,-0.9509281 -0.03594,-0.747252 0,0.011036 z"
           style="opacity:1;fill:#e65100;fill-opacity:1;fill-rule:nonzero;stroke-width:1.59205317" />
      </g>
      <path
         inkscape:connector-curvature="0"
         id="path2-6"
         d="m 14.834641,14.338983 c 0.69,0 1.25,0.56 1.25,1.25 0,0.69 -0.56,1.25 -1.25,1.25 -0.69,0 -1.25,-0.56 -1.25,-1.25 0,-0.69 0.56,-1.25 1.25,-1.25 z"
         sodipodi:nodetypes="sssss"
         style="fill:#fafafa;fill-opacity:1" />
    </g>
  </g>
  <g
     id="g15"
     transform="matrix(0.50928762,0,0,0.51196808,-0.42693396,-0.50277233)">
    <path
       inkscape:connector-curvature="0"
       id="path9"
       d="m 36.31,5 c 5.859,4.062 9.688,10.831 9.688,18.5 0,12.426 -10.07,22.5 -22.5,22.5 -7.669,0 -14.438,-3.828 -18.5,-9.688 1.037,1.822 2.306,3.499 3.781,4.969 4.085,3.712 9.514,5.969 15.469,5.969 12.703,0 23,-10.298 23,-23 0,-5.954 -2.256,-11.384 -5.969,-15.469 C 39.81,7.306 38.132,6.037 36.31,5 Z m 4.969,3.781 c 3.854,4.113 6.219,9.637 6.219,15.719 0,12.703 -10.297,23 -23,23 -6.081,0 -11.606,-2.364 -15.719,-6.219 4.16,4.144 9.883,6.719 16.219,6.719 12.703,0 23,-10.298 23,-23 0,-6.335 -2.575,-12.06 -6.719,-16.219 z"
       style="opacity:0.05" />
    <path
       inkscape:connector-curvature="0"
       id="path11"
       d="m 41.28,8.781 c 3.712,4.085 5.969,9.514 5.969,15.469 0,12.703 -10.297,23 -23,23 -5.954,0 -11.384,-2.256 -15.469,-5.969 4.113,3.854 9.637,6.219 15.719,6.219 12.703,0 23,-10.298 23,-23 0,-6.081 -2.364,-11.606 -6.219,-15.719 z"
       style="opacity:0.1" />
    <path
       inkscape:connector-curvature="0"
       id="path13"
       d="M 31.25,2.375 C 39.865,5.529 46,13.792 46,23.505 c 0,12.426 -10.07,22.5 -22.5,22.5 -9.708,0 -17.971,-6.135 -21.12,-14.75 a 23,23 0 0 0 44.875,-7 23,23 0 0 0 -16,-21.875 z"
       style="opacity:0.2" />
  </g>
  <g
     id="g27"
     transform="matrix(0.50928762,0,0,0.51196808,-0.42693396,-0.50277233)">
    <g
       id="g25">
      <g
         id="g23"
         transform="translate(1,1)" />
    </g>
  </g>
  <g
     id="g31"
     transform="matrix(0.50928762,0,0,0.51196808,-0.42693396,-0.50277233)" />
</svg>
